<?xml version="1.0" encoding="UTF-8" standalone="no"?>
<svg
   xmlns:dc="http://purl.org/dc/elements/1.1/"
   xmlns:cc="http://creativecommons.org/ns#"
   xmlns:rdf="http://www.w3.org/1999/02/22-rdf-syntax-ns#"
   xmlns:svg="http://www.w3.org/2000/svg"
   xmlns="http://www.w3.org/2000/svg"
   viewBox="0 0 450 450"
   height="65"
   width="65"
   xml:space="preserve"
   version="1.1"
   id="svg2"><metadata
     id="metadata8"><rdf:RDF><cc:Work
         rdf:about=""><dc:format>image/svg+xml</dc:format><dc:type
           rdf:resource="http://purl.org/dc/dcmitype/StillImage" /><dc:title></dc:title></cc:Work></rdf:RDF></metadata><defs
     id="defs6" /><g
     transform="matrix(1.25,0,0,-1.25,0,450)"
     id="g10"><g
       transform="scale(0.1,0.1)"
       id="g12"><path
         id="path14"
         style="fill:#182443;fill-opacity:1;fill-rule:nonzero;stroke:none"
         d="m 0,0 3600,0 0,3600 L 0,3600 0,0 Z" /><path
         id="path16"
         style="fill:#ffffff;fill-opacity:1;fill-rule:nonzero;stroke:none"
         d="m 3302.29,1935.26 0,114.06 -433.87,0 0,-420.27 c -2.33,49.24 -20.31,87.43 -54.36,114.3 -23.54,18.58 -58.89,33.42 -106.05,44.52 l -107.61,25.37 c -41.53,9.71 -68.68,18.16 -81.47,25.38 -11.75,6.38 -19.99,14.72 -24.8,24.97 -0.01,-0.01 -0.01,-0.01 -0.01,-0.02 -0.04,0.07 -0.07,0.15 -0.1,0.22 l 0,0 c -3.2,7.01 -5.03,15.18 -5.03,23.97 0,18.79 6.45,34.77 19.79,47.33 0,0.01 0.01,0.03 0.01,0.05 0.28,0.27 0.59,0.53 0.88,0.79 l 0,0.01 c 0.01,0.05 0.02,0.06 0.04,0.03 2.91,2.65 6.11,5.15 9.64,7.48 20.19,13.32 47.2,19.97 81.04,19.97 30.42,0 55.87,-5.13 76.34,-15.39 30.71,-15.54 47.19,-41.75 49.47,-78.63 l 123.14,0 c -2.25,65.17 -26.46,114.89 -72.65,149.14 -46.19,34.25 -101.98,51.38 -167.39,51.38 -78.33,0 -137.72,-18.17 -178.15,-54.5 -24.85,-22.34 -42.04,-48.2 -51.61,-77.56 l -0.05,0 c -2.05,-6.32 -3.78,-12.89 -5.13,-19.53 l -0.01,0 c -14.99,-70.72 -60.53,-118.75 -136.67,-118.75 -121.89,0 -167.68,103.71 -167.68,206.57 0,108.01 45.79,211.7 167.68,211.7 67.38,0 126.18,-46.65 134.81,-108 l 131.38,0 c -16.43,142.58 -130.52,222.11 -266.19,222.11 -182.16,0 -292.69,-129.73 -302.56,-300.63 l 0,285.93 -135.7,0 0,-383.73 c 0,-91.61 -31.11,-133.95 -127.9,-133.95 -109.77,0 -127.05,66.54 -127.05,133.95 l 0,383.73 -135.68,0 0,-383.73 c 0,-167.66 96.77,-248.04 262.73,-248.04 165.09,0 263.6,81.23 263.6,248.04 l 0,48.12 c 9.87,-166.44 120.4,-296.16 302.56,-296.16 74.85,0 138.68,24.14 185.75,67.16 2.92,-2.35 5.91,-4.64 9.07,-6.8 24.4,-16.92 69.23,-32.59 134.48,-47.01 l 66.38,-14.56 c 38.86,-8.32 67.24,-17.89 85.14,-28.7 17.89,-11.1 26.84,-26.77 26.84,-47.01 0,-34.68 -18.26,-58.39 -54.8,-71.14 -19.25,-6.66 -44.32,-9.99 -75.18,-9.99 -51.54,0 -87.93,12.62 -109.16,37.86 -11.61,13.87 -19.4,34.8 -23.36,62.82 l -122.31,0 c 0,-63.8 23.12,-113.92 69.37,-150.39 46.26,-36.47 109.75,-54.7 190.49,-54.7 79.05,0 140.22,18.51 183.53,55.53 39.84,34.06 61.3,76.17 64.5,126.29 l 0,-172.62 135.7,0 0,254.98 258.4,0 0,105.43 -258.4,0 0,142.62 298.17,0" /></g></g></svg>
