<?xml version="1.0" encoding="UTF-8" standalone="no"?>
<svg width="70px" height="70px" viewBox="0 0 70 70" version="1.1" xmlns="http://www.w3.org/2000/svg" xmlns:xlink="http://www.w3.org/1999/xlink">
    <!-- Generator: Sketch 39.1 (31720) - http://www.bohemiancoding.com/sketch -->
    <title>UCSF_logobox_navy_RGB</title>
    <desc>Created with Sketch.</desc>
    <defs></defs>
    <g id="Finals" stroke="none" stroke-width="1" fill="none" fill-rule="evenodd">
        <g id="1.0-Home_XL-Copy" transform="translate(-135.000000, -3310.000000)">
            <g id="Footer" transform="translate(0.000000, 3280.000000)">
                <g id="UCSF_logobox_navy_RGB" transform="translate(135.000000, 30.000000)">
                    <polygon id="Fill-1" fill="#FFFFFF" points="0 70 70 70 70 0 0 0"></polygon>
                    <path d="M64.53125,31.7003269 L64.53125,29.5042832 L56.0102357,29.5042832 L56.0102357,37.5959129 C55.9644755,36.6478751 55.6113563,35.9125875 54.9426294,35.3952484 C54.4803142,35.0375201 53.7860559,34.7517995 52.8598544,34.5380867 L50.7464418,34.0496277 C49.930811,33.8626771 49.397597,33.6999858 49.1464071,33.5609762 C48.9156423,33.4381395 48.7538124,33.2775661 48.6593461,33.0802186 C48.6591497,33.0804112 48.6591497,33.0804112 48.6591497,33.0806037 C48.6583641,33.079256 48.657775,33.0777157 48.6571858,33.076368 C48.5943392,32.9414016 48.5583988,32.7841012 48.5583988,32.6148638 C48.5583988,32.2530922 48.6850739,31.9454228 48.9470656,31.7036 C48.9470656,31.7034074 48.947262,31.7030224 48.947262,31.7026373 C48.9527611,31.6974389 48.9588494,31.692433 48.9645448,31.6874271 L48.9645448,31.6872346 C48.9647412,31.6862719 48.9649376,31.6860794 48.9653304,31.686657 C49.0224815,31.6356354 49.0853281,31.5875019 49.1546557,31.5426415 C49.5511784,31.2861861 50.0816428,31.1581509 50.7462454,31.1581509 C51.3436807,31.1581509 51.8435074,31.2569209 52.2455291,31.4544609 C52.8486599,31.7536588 53.1723198,32.2582907 53.217098,32.9683563 L55.6355129,32.9683563 C55.5913239,31.7136117 55.1158503,30.7563323 54.2086992,30.0969031 C53.3015481,29.4374739 52.2058572,29.107663 50.9212338,29.107663 C49.3828674,29.107663 48.2164741,29.4574974 47.4224469,30.1569737 C46.9344039,30.5870949 46.5967999,31.084988 46.4088494,31.650268 L46.4078674,31.650268 C46.3676063,31.7719496 46.3336299,31.8984445 46.3071165,32.0262871 L46.3069201,32.0262871 C46.0125231,33.3878881 45.1181377,34.3126293 43.6227819,34.3126293 C41.2289164,34.3126293 40.3296211,32.3158583 40.3296211,30.3354528 C40.3296211,28.2558922 41.2289164,26.2595064 43.6227819,26.2595064 C44.9460952,26.2595064 46.1009011,27.1576778 46.2703905,28.3388744 L48.8506354,28.3388744 C48.5279575,25.5937235 46.2872805,24.0625 43.6227819,24.0625 C40.0452403,24.0625 37.8744801,26.5602446 37.6806377,29.850652 L37.6806377,24.3455251 L35.0155499,24.3455251 L35.0155499,31.7336353 C35.0155499,33.49744 34.4045633,34.3126293 32.5036506,34.3126293 C30.3478165,34.3126293 30.008445,33.0315075 30.008445,31.7336353 L30.008445,24.3455251 L27.34375,24.3455251 L27.34375,31.7336353 C27.34375,34.9616617 29.2442699,36.5092506 32.5036506,36.5092506 C35.745945,36.5092506 37.6806377,34.9452963 37.6806377,31.7336353 L37.6806377,30.8071613 C37.8744801,34.0116985 40.0452403,36.5092506 43.6227819,36.5092506 C45.0928027,36.5092506 46.3463956,36.0444733 47.2708295,35.2161917 C47.328177,35.2614372 47.3868993,35.3055275 47.4489603,35.3471149 C47.9281654,35.6728825 48.8086067,35.9745834 50.0900878,36.2522176 L51.3937616,36.5325472 C52.1569547,36.6927356 52.7143253,36.8769907 53.0658734,37.08512 C53.417225,37.2988328 53.5929991,37.6005337 53.5929991,37.9902227 C53.5929991,38.6579309 53.2343808,39.1144292 52.5167514,39.3599101 C52.1386899,39.4881378 51.6463262,39.5522517 51.0402495,39.5522517 C50.0280268,39.5522517 49.3133433,39.3092737 48.8963956,38.8233177 C48.6683803,38.5562729 48.5153882,38.1532991 48.4376155,37.6138186 L46.0355014,37.6138186 C46.0355014,38.842186 46.4895679,39.8071668 47.3978974,40.5093386 C48.3064233,41.2115104 49.5533387,41.5625 51.1390365,41.5625 C52.6915434,41.5625 53.8928951,41.2061194 54.7434843,40.4933583 C55.5259242,39.8375872 55.9473891,39.0268262 56.0102357,38.0618454 L56.0102357,41.3853686 L58.6753235,41.3853686 L58.6753235,36.4761347 L63.7501848,36.4761347 L63.7501848,34.4462479 L58.6753235,34.4462479 L58.6753235,31.7003269 L64.53125,31.7003269" id="Fill-3" fill="#052049"></path>
                </g>
            </g>
        </g>
    </g>
</svg>